 http://j .mp/aCtREg - site (remove space)

This computer render shows CMS in action

Video
Format                           : AVC
Format/Info                      : Advanced Video Codec
Format profile                   : High@L3.1
Format settings, CABAC           : Yes
Codec ID/Info                    : Advanced Video Coding
Duration                         : 6mn 14s
Bit rate mode                    : Variable
Bit rate                         : 2 002 Kbps
Maximum bit rate                 : 7 053 Kbps
Width                            : 1 280 pixels
Height                           : 720 pixels
Display aspect ratio             : 16:9
Frame rate mode                  : Constant
Frame rate                       : 29.970 fps
Resolution                       : 8 bits
Colorimetry                      : 4:2:0
Scan type                        : Progressive
Bits/(Pixel*Frame)               : 0.072
Stream size                      : 89.2 MiB (94%)

Audio
Format                           : AAC
Format/Info                      : Advanced Audio Codec
Bit rate mode                    : Variable
Bit rate                         : 124 Kbps
Maximum bit rate                 : 215 Kbps
Channel(s)                       : 2 channels
Sampling rate                    : 44.1 KHz
Stream size                      : 5.53 MiB (6%)